<?xml version="1.0" encoding="utf-8"?>
<!-- Generator: Adobe Illustrator 19.0.0, SVG Export Plug-In . SVG Version: 6.00 Build 0)  -->
<svg version="1.1" id="Слой_1" xmlns="http://www.w3.org/2000/svg" xmlns:xlink="http://www.w3.org/1999/xlink" x="0px" y="0px"
	 viewBox="-435 237 88 88" style="enable-background:new -435 237 88 88;" xml:space="preserve">
<style type="text/css">
	.st0{fill:#2D2D2D;}
	.st1{fill:#FFFFFF;}
</style>
<g>
	<circle class="st0" cx="-391" cy="281" r="44"/>
	<g>
		<g>
			<path class="st1" d="M-369,280h-3.2c-0.5-9.6-8.2-17.2-17.7-17.7V259h-2.1v3.2c-9.6,0.5-17.2,8.2-17.7,17.7h-3.3v2.1h3.2
				c0.5,9.6,8.2,17.2,17.7,17.7v3.3h2.1v-3.2c9.6-0.5,17.2-8.2,17.7-17.7h3.3V280z M-373.6,280h-5.7c-0.5-5.6-5-10.2-10.7-10.7v-5.7
				C-381.2,264.2-374.2,271.2-373.6,280z M-392,280h-9.2c0.5-4.9,4.4-8.7,9.2-9.2V280z M-392,282v9.2c-4.9-0.5-8.7-4.4-9.2-9.2H-392
				z M-390,282h9.2c-0.5,4.9-4.4,8.7-9.2,9.2V282z M-390,280v-9.2c4.9,0.5,8.7,4.4,9.2,9.2H-390z M-392,263.6v5.7
				c-5.6,0.5-10.2,5-10.7,10.7h-5.7C-407.8,271.2-400.8,264.2-392,263.6z M-408.4,282h5.7c0.5,5.6,5,10.2,10.7,10.7v5.7
				C-400.8,297.8-407.8,290.8-408.4,282z M-390,298.4v-5.7c5.6-0.5,10.2-5,10.7-10.7h5.7C-374.2,290.8-381.2,297.8-390,298.4z"/>
		</g>
	</g>
</g>
</svg>
