<?xml version="1.0" encoding="utf-8"?>
<!-- Generator: Adobe Illustrator 19.0.0, SVG Export Plug-In . SVG Version: 6.00 Build 0)  -->
<svg version="1.1" id="Layer_1" xmlns="http://www.w3.org/2000/svg" xmlns:xlink="http://www.w3.org/1999/xlink" x="0px" y="0px"
	 viewBox="0 0 60 60" style="enable-background:new 0 0 60 60;" xml:space="preserve">
<style type="text/css">
	.st0{opacity:0.9;fill:#2D2D2D;}
	.st1{fill:#FFFFFF;}
</style>
<g id="XMLID_2_">
	<circle id="XMLID_9_" class="st0" cx="30" cy="30" r="30"/>
	<path id="XMLID_3_" class="st1" d="M40.1,33.4h-3.4c0.4-1.6,1.9-2.9,3.7-2.7c1.6,0.1,2.9,1.4,3.1,3c0.2,2.1-1.4,3.8-3.4,3.8
		c-1.6,0-3-1.2-3.4-2.7h3.4V33.4L40.1,33.4z M28.3,31.9h4.2c-0.1,0.5-0.2,1-0.3,1.5l-3,0L28.3,31.9L28.3,31.9z M24.8,26.6l0.7-1.3
		h4.1c0.4,0,0.7,0.1,1,0.4l2.4,2l2.6,0c-1,0.7-1.8,1.6-2.4,2.7h-5.8L24.8,26.6L24.8,26.6z M22.9,30.2l1.1-2.1l4.5,6.7h6.7
		c0.4,2.5,2.6,4.4,5.3,4.2c2.4-0.2,4.4-2.2,4.5-4.7c0.1-2.8-2.1-5.1-4.9-5.1c-2.5,0-4.5,1.8-4.9,4.2h-1.5c0.4-3.2,3.1-5.6,6.3-5.6
		h1.1H43v-1.5h-3h-6.6l-2-1.7c-0.5-0.4-1.2-0.7-2-0.7h-3.3l0.8-1.4h2.4V21h-3.3l-4.6,8.5c-0.7-0.2-1.4-0.3-2.2-0.3
		c-2.3,0.2-4.1,2.1-4.4,4.3c-0.3,3,2,5.5,4.9,5.5c2.7,0,4.9-2.2,4.9-4.9C24.8,32.5,24,31.1,22.9,30.2L22.9,30.2z M20.5,34.5l1.6-3
		c0.8,0.7,1.3,1.9,1.2,3.1c-0.2,1.5-1.4,2.6-2.8,2.9c-2.3,0.4-4.2-1.5-4-3.7c0.1-1.6,1.4-2.9,3-3.1c0.5-0.1,1,0,1.4,0.1l-1.6,3
		L20.5,34.5L20.5,34.5z"/>
</g>
</svg>
