<?xml version="1.0" encoding="utf-8"?>
<!-- Generator: Adobe Illustrator 19.0.0, SVG Export Plug-In . SVG Version: 6.00 Build 0)  -->
<svg version="1.1" id="Layer_1" xmlns="http://www.w3.org/2000/svg" xmlns:xlink="http://www.w3.org/1999/xlink" x="0px" y="0px"
	 viewBox="0 0 68 116.2" style="enable-background:new 0 0 68 116.2;" xml:space="preserve">
<style type="text/css">
	.st0{fill:#2D2D2D;}
	.st1{fill:#24A0A0;}
	.st2{opacity:0.9;fill:#FFFFFF;}
</style>
<g id="XMLID_3_">
	<path id="XMLID_12_" class="st0" d="M68,34c0,18.8-28.7,38.3-34,82.2C28.7,72.3,0,52.8,0,34S15.2,0,34,0S68,15.2,68,34z"/>
	<g id="XMLID_4_">
		<circle id="XMLID_11_" class="st1" cx="34" cy="33.5" r="28.5"/>
		<path id="XMLID_5_" class="st2" d="M43.6,36.7h-3.2c0.3-1.6,1.8-2.7,3.5-2.6c1.5,0.1,2.8,1.4,2.9,2.9c0.2,2-1.3,3.6-3.3,3.6
			c-1.6,0-2.9-1.1-3.2-2.6h3.2V36.7L43.6,36.7z M32.4,35.3h4c-0.1,0.4-0.2,0.9-0.3,1.4l-2.8,0L32.4,35.3L32.4,35.3z M29.1,30.3
			l0.7-1.2h3.9c0.4,0,0.7,0.1,1,0.4l2.3,1.9l2.5,0c-0.9,0.7-1.7,1.6-2.2,2.6h-5.5L29.1,30.3L29.1,30.3z M27.2,33.7l1.1-2l4.3,6.4H39
			c0.4,2.4,2.5,4.2,5,4c2.3-0.2,4.2-2.1,4.3-4.4c0.1-2.7-2-4.9-4.7-4.9c-2.3,0-4.3,1.7-4.6,4h-1.4c0.3-3,2.9-5.4,6-5.4h1h1.8v-1.4
			h-2.8h-6.3l-1.9-1.6c-0.5-0.4-1.2-0.7-1.9-0.7h-3.1l0.8-1.4h2.3v-1.4h-3.1L26,33c-0.6-0.2-1.3-0.3-2.1-0.3c-2.2,0.2-3.9,2-4.1,4.1
			c-0.3,2.8,1.9,5.2,4.6,5.2c2.6,0,4.7-2.1,4.7-4.7C29.1,35.9,28.3,34.5,27.2,33.7L27.2,33.7z M25,37.7l1.5-2.8
			c0.8,0.7,1.3,1.8,1.1,2.9c-0.2,1.4-1.3,2.5-2.7,2.7c-2.1,0.4-4-1.4-3.8-3.5c0.1-1.5,1.3-2.8,2.8-3c0.5-0.1,0.9,0,1.3,0.1L23.8,37
			L25,37.7L25,37.7z"/>
	</g>
</g>
</svg>
