<?xml version="1.0" encoding="utf-8"?>
<!-- Generator: Adobe Illustrator 19.0.0, SVG Export Plug-In . SVG Version: 6.00 Build 0)  -->
<svg version="1.1" id="Layer_1" xmlns="http://www.w3.org/2000/svg" xmlns:xlink="http://www.w3.org/1999/xlink" x="0px" y="0px"
	 viewBox="-19 21 60 60" style="enable-background:new -19 21 60 60;" xml:space="preserve">
<style type="text/css">
	.st0{opacity:0.9;fill:#2D2D2D;}
	.st1{fill:#FFFFFF;}
</style>
<circle class="st0" cx="11" cy="51" r="30"/>
<g>
	<g>
		<path class="st1" d="M26,50h-2.2C23.5,44,18,38.5,12,38.2V36h-2v2.2C4,38.5-1.5,44-1.8,50H-4v2h2.2C-1.5,58,4,63.5,10,63.8V66h2
			v-2.2C18,63.5,23.5,58,23.8,52H26V50z M22.8,50H19c-0.3-4-3-6.6-7-7v-3.9C18,39.5,22.5,44,22.8,50z M10,50H4c0.3-3,3-5.7,6-6V50z
			 M10,52v6c-3-0.3-5.7-3-6-6H10z M12,52h6c-0.3,3-3,5.7-6,6V52z M12,50v-6c3,0.3,5.7,3,6,6H12z M10,39.2V43c-4,0.3-6.6,3-7,7h-3.9
			C-0.5,44,4,39.5,10,39.2z M-0.8,52H3c0.3,4,3,6.6,7,7v3.9C4,62.5-0.5,58-0.8,52z M12,62.8V59c4-0.3,6.6-3,7-7h3.9
			C22.5,58,18,62.5,12,62.8z"/>
	</g>
</g>
</svg>
